<svg width="30" height="30" viewBox="0 0 30 30" fill="none" xmlns="http://www.w3.org/2000/svg">
<path d="M12.8571 2.14286V6.42857C12.8571 7.61384 13.8147 8.57143 15 8.57143H19.2857C20.471 8.57143 21.4286 7.61384 21.4286 6.42857V2.14286C21.4286 0.957589 20.471 0 19.2857 0H15C13.8147 0 12.8571 0.957589 12.8571 2.14286ZM5.53795 11.7188C4.51339 12.308 4.16518 13.6205 4.75446 14.6451L6.89732 18.3549C7.48661 19.3795 8.79911 19.7277 9.82366 19.1384L13.5335 16.9955C14.558 16.4062 14.9062 15.0938 14.317 14.0692L12.1741 10.3594C11.5848 9.33482 10.2723 8.98661 9.24777 9.57589L5.53795 11.7188ZM19.2857 10.7143C18.1004 10.7143 17.1429 11.6719 17.1429 12.8571V17.1429C17.1429 18.3281 18.1004 19.2857 19.2857 19.2857H23.5714C24.7567 19.2857 25.7143 18.3281 25.7143 17.1429V12.8571C25.7143 11.6719 24.7567 10.7143 23.5714 10.7143H19.2857ZM23.5714 21.4286C22.3862 21.4286 21.4286 22.3862 21.4286 23.5714V27.8571C21.4286 29.0424 22.3862 30 23.5714 30H27.8571C29.0424 30 30 29.0424 30 27.8571V23.5714C30 22.3862 29.0424 21.4286 27.8571 21.4286H23.5714ZM10.7143 23.5714V27.8571C10.7143 29.0424 11.6719 30 12.8571 30H17.1429C18.3281 30 19.2857 29.0424 19.2857 27.8571V23.5714C19.2857 22.3862 18.3281 21.4286 17.1429 21.4286H12.8571C11.6719 21.4286 10.7143 22.3862 10.7143 23.5714ZM2.14286 21.4286C0.957589 21.4286 0 22.3862 0 23.5714V27.8571C0 29.0424 0.957589 30 2.14286 30H6.42857C7.61384 30 8.57143 29.0424 8.57143 27.8571V23.5714C8.57143 22.3862 7.61384 21.4286 6.42857 21.4286H2.14286Z" fill="#7688C9"/>
</svg>
