<svg width="34" height="30" viewBox="0 0 34 30" fill="none" xmlns="http://www.w3.org/2000/svg">
<path d="M32.102 16.8516C33.1056 16.8516 33.9911 16.0313 33.9911 14.9707C34.0501 14.4434 33.814 13.9746 33.3417 13.5645L30.2248 10.8398V3.75C30.2248 2.71289 29.3806 1.875 28.3357 1.875H26.4467C25.4018 1.875 24.5576 2.71289 24.5576 3.75V5.90039L18.2707 0.410156C17.9165 0.117188 17.4442 0 17.031 0C16.6177 0 16.1455 0.0585938 15.7322 0.46875L0.590328 13.5645C0.177098 13.9746 0 14.4434 0 14.9707C0 16.0254 0.826459 16.8516 1.88905 16.8516H3.7781V20.9355C3.7722 20.9883 3.7722 21.041 3.7722 21.0996V27.6562C3.7722 28.9512 4.82888 30 6.13351 30H7.07803C7.14887 30 7.21971 29.9941 7.29055 29.9883C7.3791 29.9941 7.46765 30 7.5562 30H9.44525H10.862C12.1667 30 13.2233 28.9512 13.2233 27.6562V26.25V22.5C13.2233 21.4629 14.0675 20.625 15.1124 20.625H18.8905C19.9354 20.625 20.7795 21.4629 20.7795 22.5V26.25V27.6562C20.7795 28.9512 21.8362 30 23.1409 30H24.5576H26.4762C26.5589 30 26.6415 30 26.7241 29.9941C26.7891 30 26.854 30 26.919 30H27.8635C29.1681 30 30.2248 28.9512 30.2248 27.6562V26.707C30.2425 26.5547 30.2543 26.3965 30.2543 26.2324L30.213 16.8457H32.102V16.8516Z" fill="#7688C9"/>
</svg>
