<svg width="30" height="30" viewBox="0 0 30 30" fill="none" xmlns="http://www.w3.org/2000/svg">
<path d="M15.0573 14.0625V0.972656C15.0573 0.445313 15.4448 0 15.943 0C22.7908 0 28.3432 5.87695 28.3432 13.125C28.3432 13.6523 27.9225 14.0625 27.4242 14.0625H15.0573ZM0 15.9375C0 8.83008 4.98773 2.94727 11.4591 2.00977C11.9683 1.93359 12.4001 2.36719 12.4001 2.91211V16.875L21.0636 26.0449C21.4345 26.4375 21.4068 27.082 20.9806 27.3984C18.8106 29.0391 16.1534 30 13.2859 30C5.95096 30 0 23.707 0 15.9375ZM29.1403 16.875C29.6552 16.875 30.0593 17.332 29.9928 17.8711C29.5666 21.1465 28.0775 24.0586 25.9019 26.209C25.5697 26.5371 25.0494 26.5137 24.7283 26.168L15.943 16.875H29.1403Z" fill="#7688C9"/>
</svg>
